<?xml version="1.0" encoding="utf-8"?>
<!-- Generator: Adobe Illustrator 21.1.0, SVG Export Plug-In . SVG Version: 6.00 Build 0)  -->
<svg version="1.2" baseProfile="tiny" id="Laag_1" xmlns="http://www.w3.org/2000/svg" xmlns:xlink="http://www.w3.org/1999/xlink"
	 x="0px" y="0px" viewBox="0 0 34.02 28.3465" xml:space="preserve">
<g>
	<path fill="none" d="M-962.49-781.3268v2643h1440v-2643H-962.49z"/>
</g>
<path fill="#010202" d="M2.7556,16.2335h23.138l-7.541,7.7003c-0.9393,0.959-0.9393,1.9144,0,2.8714
	c0.4245,0.4352,0.9145,0.6521,1.47,0.6521c0.5519,0,1.0419-0.2169,1.47-0.6521l12.0166-12.6594L21.2926,1.4864
	c-0.9393-0.9554-1.8981-0.9337-2.8763,0.0649c-0.9818,1.0024-1.003,1.9811-0.0637,2.9365l7.4136,7.5703H2.7556
	c-0.596,0-1.086,0.1952-1.47,0.5869c-0.3838,0.392-0.5748,0.8706-0.5748,1.4358c0,0.567,0.191,1.0654,0.5748,1.5007
	C1.6696,16.0187,2.1596,16.2335,2.7556,16.2335z"/>
</svg>
