<svg xmlns="http://www.w3.org/2000/svg" xmlns:xlink="http://www.w3.org/1999/xlink" viewBox="0 0 88.53 73.93">
  <path d="M25.42,57.6c-8.19,0-15.32-5.44-16.66-12.27,2,0,7-.58,7-.88-7.54-3-14.12-9.61-14.9-19.29,3.51,1.75,7.71,4.05,10.81,4.38,0-.29-13.44-13.15-6.43-26.3C12,12.31,29.26,23,43,23.41c-.22-9.85,2.2-16.31,7.89-20.16,14-7.3,23.08-.58,26.3,3.51l9.64-4.38c0,.58-5.26,8.47-6.14,9.64.88,0,6.14-.58,7.89-.88,0,.29-8.76,7.89-8.76,7.89S80.94,40.36,71,53.51c-16.65,23.67-45.1,21.4-55.23,19C9.64,71,3.8,69,0,64.61c10.52.58,25.42-6.43,25.42-7"/>
</svg>