<svg viewBox="0 0 100 100" xmlns="http://www.w3.org/2000/svg">
<title>Jumpstart</title>
  <path d="M64.4,44.7h-9.1l0.4-19.4c0-0.8-0.6-1.5-1.5-1.5c-0.5,0-1,0.2-1.3,0.6L34.3,51.2c-0.5,0.7-0.3,1.6,0.4,2.1c0.2,0.2,0.5,0.3,0.8,0.3h10.9v21.2c0,0.8,0.7,1.5,1.5,1.5c0.5,0,1-0.3,1.3-0.8L65.7,47c0.4-0.7,0.2-1.6-0.5-2.1C65,44.8,64.7,44.7,64.4,44.7z M49.4,69.2V52.1c0-0.8-0.7-1.5-1.5-1.5h-9.5l14.1-20.4l-0.3,16c0,0.8,0.6,1.5,1.5,1.5l0,0h8.1L49.4,69.2z"/>
  <path d="M50,17.5c0.8,0,1.5-0.7,1.5-1.5v-1c0-0.8-0.7-1.5-1.5-1.5s-1.5,0.7-1.5,1.5v1C48.5,16.8,49.2,17.5,50,17.5z"/>
  <path d="M48.5,11.2c0,0.8,0.7,1.5,1.5,1.5s1.5-0.7,1.5-1.5V7l0,0V6c0-0.8-0.7-1.5-1.5-1.5S48.5,5.2,48.5,6v1l0,0V11.2L48.5,11.2z"/>
  <path d="M50,86.5c0.8,0,1.5-0.7,1.5-1.5v-1c0-0.8-0.7-1.5-1.5-1.5s-1.5,0.7-1.5,1.5v1C48.5,85.8,49.2,86.5,50,86.5z"/>
  <path d="M50,87.3c-0.8,0-1.5,0.7-1.5,1.5V93l0,0v1c0,0.8,0.7,1.5,1.5,1.5s1.5-0.7,1.5-1.5v-1l0,0v-4.2C51.5,88,50.8,87.3,50,87.3z"/>
  <path d="M85,48.5h-1c-0.8,0-1.5,0.7-1.5,1.5s0.7,1.5,1.5,1.5h1c0.8,0,1.5-0.7,1.5-1.5S85.8,48.5,85,48.5z"/>
  <path d="M94,48.5h-5.2c-0.8,0-1.5,0.7-1.5,1.5s0.7,1.5,1.5,1.5H94c0.8,0,1.5-0.7,1.5-1.5S94.8,48.5,94,48.5z"/>
  <path d="M16,48.5h-1c-0.8,0-1.5,0.7-1.5,1.5s0.7,1.5,1.5,1.5h1c0.8,0,1.5-0.7,1.5-1.5S16.8,48.5,16,48.5z"/>
  <path d="M11.2,48.5H6c-0.8,0-1.5,0.7-1.5,1.5s0.7,1.5,1.5,1.5h5.2c0.8,0,1.5-0.7,1.5-1.5S12,48.5,11.2,48.5z"/>
  <path d="M74,27.5c0.4,0,0.8-0.2,1.1-0.5l0.7-0.7c0.6-0.6,0.5-1.6-0.1-2.1s-1.5-0.5-2,0L73,24.9c-0.6,0.6-0.6,1.5,0,2.1C73.3,27.3,73.6,27.4,74,27.5z"/>
  <path d="M77.4,24.1c0.4,0,0.8-0.2,1.1-0.4l3-3l0,0l0.7-0.7c0.6-0.6,0.5-1.6-0.1-2.1s-1.5-0.5-2,0l-0.7,0.7l0,0l-3,3c-0.6,0.6-0.6,1.5,0,2.1C76.6,23.9,77,24.1,77.4,24.1z"/>
  <path d="M24.9,73l-0.7,0.7c-0.6,0.6-0.6,1.5-0.1,2.1s1.5,0.6,2.1,0.1c0,0,0.1,0,0.1-0.1l0.7-0.7c0.7-0.5,0.8-1.4,0.3-2.1s-1.4-0.8-2.1-0.3C25.1,72.8,25,72.9,24.9,73z"/>
  <path d="M21.5,76.4l-3,3l0,0l-0.7,0.7c-0.6,0.6-0.6,1.5-0.1,2.1c0.6,0.6,1.5,0.6,2.1,0.1c0,0,0.1,0,0.1-0.1l0.7-0.7l0,0l3-3c0.6-0.6,0.6-1.5,0-2.1l0,0C23,75.8,22.1,75.8,21.5,76.4z"/>
  <path d="M75.8,73.7L75.1,73c-0.7-0.5-1.6-0.4-2.1,0.3c-0.4,0.5-0.4,1.3,0,1.8l0.7,0.7c0.6,0.5,1.6,0.4,2.1-0.2C76.3,75,76.3,74.2,75.8,73.7z"/>
  <path d="M81.5,79.3L81.5,79.3l-3-3c-0.6-0.6-1.5-0.6-2.1,0s-0.6,1.5,0,2.1l3,3l0,0l0.7,0.7c0.6,0.6,1.6,0.5,2.1-0.1s0.5-1.5,0-2L81.5,79.3z"/>
  <path d="M26.3,24.2c-0.6-0.6-1.6-0.5-2.1,0.1s-0.5,1.5,0,2l0.7,0.7c0.5,0.7,1.4,0.8,2.1,0.3s0.8-1.4,0.3-2.1c-0.1-0.1-0.2-0.2-0.3-0.3L26.3,24.2z"/>
  <path d="M18.5,20.7L18.5,20.7l3,3c0.6,0.6,1.5,0.6,2.1,0.1s0.6-1.5,0.1-2.1c0,0,0-0.1-0.1-0.1l-3-3l0,0L20,17.8c-0.6-0.6-1.6-0.5-2.1,0.1s-0.5,1.5,0,2L18.5,20.7z"/>
</svg>
