<svg xmlns="http://www.w3.org/2000/svg" xmlns:xlink="http://www.w3.org/1999/xlink" viewBox="0 0 78.82 79.17"><defs><clipPath id="a" transform="translate(0 0)"><rect width="78.82" height="79.17" fill="none"/></clipPath></defs><title>instagram</title><g clip-path="url(#a)"><g clip-path="url(#a)"><path d="M55.86,28.32H78.74c0,.31.05.65.05,1q0,17.24,0,34.48A15.51,15.51,0,0,1,63.35,79.16H15.42A15.46,15.46,0,0,1,0,64C0,52.37,0,40.71,0,29.06c0-.22,0-.44,0-.74H22.9A20,20,0,0,0,20,45.24a19.67,19.67,0,0,0,7.53,10.94A20.16,20.16,0,0,0,55.86,28.32" transform="translate(0 0)"/><path d="M12.05.52v19h3.18V.08H17.4V19.5h3.21V0H63.4A15.51,15.51,0,0,1,78.79,15.05c.07,3.36,0,6.72,0,10.08a6.63,6.63,0,0,1-.08.71h-1c-7.71,0-15.43,0-23.15,0a2.41,2.41,0,0,1-1.48-.6,20.16,20.16,0,0,0-27.61.15,1.62,1.62,0,0,1-1,.46q-12.05,0-24.11,0A2.44,2.44,0,0,1,0,25.76c0-.39,0-.8,0-1.21C.05,21,0,17.37.15,13.79A14.92,14.92,0,0,1,6.61,2.9V19.54H9.76V2.7c0-1.78.3-2.07,2.3-2.18M58.3,13.31c0,1.41,0,2.82,0,4.22a2.4,2.4,0,0,0,2.52,2.54q4.13,0,8.26,0a2.41,2.41,0,0,0,2.54-2.53q0-4.22,0-8.45a2.38,2.38,0,0,0-2.43-2.54q-4.22-.07-8.45,0A2.37,2.37,0,0,0,58.3,9.09c0,1.41,0,2.82,0,4.22" transform="translate(0 0)"/><path d="M39.33,55.47A15.53,15.53,0,1,1,54.91,39.94,15.54,15.54,0,0,1,39.33,55.47m.08-27A11.45,11.45,0,1,0,50.84,40,11.43,11.43,0,0,0,39.41,28.5" transform="translate(0 0)" /></g></g></svg>