<svg xmlns="http://www.w3.org/2000/svg" xmlns:xlink="http://www.w3.org/1999/xlink" viewBox="0 0 83.04 78.96"><defs><clipPath id="a" transform="translate(0 0)"><rect width="83.04" height="78.96" fill="none"/></clipPath></defs><title>linkedin</title><g clip-path="url(#a)"><g clip-path="url(#a)"><path d="M20.42,10.21A10.21,10.21,0,1,1,10.21,0,10.21,10.21,0,0,1,20.42,10.21" transform="translate(0 0)" fill-rule="evenodd"/><rect x="0.91" y="26.55" width="18.83" height="52.41" /><rect x="27.46" y="26.55" width="18.83" height="52.41" /><path d="M45.15,35.39S49,22.23,69.43,25.86c6.76,1.2,13.37,10.37,13.37,20.61S83,79,83,79H64.66S65,64.36,65,58.08,64.66,44,59,41.75c-10.41-4.16-12.71,3.18-12.71,3.18Z" transform="translate(0 0)" fill-rule="evenodd"/></g></g></svg>